<mxfile host="Electron" agent="Mozilla/5.0 (Windows NT 10.0; Win64; x64) AppleWebKit/537.36 (KHTML, like Gecko) draw.io/24.7.17 Chrome/128.0.6613.36 Electron/32.0.1 Safari/537.36" version="24.7.17" pages="4">
  <diagram name="f-1" id="140547733233616">
    <mxGraphModel dx="1235" dy="740" grid="1" gridSize="10" guides="1" tooltips="1" connect="1" arrows="1" fold="1" page="1" pageScale="1" pageWidth="850" pageHeight="1100" math="0" shadow="0">
      <root>
        <mxCell id="0" />
        <mxCell id="1" parent="0" />
      </root>
    </mxGraphModel>
  </diagram>
  <diagram name="right_rectangle_method-1" id="140547733256768">
    <mxGraphModel dx="1750" dy="1048" grid="1" gridSize="10" guides="1" tooltips="1" connect="1" arrows="1" fold="1" page="1" pageScale="1" pageWidth="850" pageHeight="1100" math="0" shadow="0">
      <root>
        <mxCell id="0" />
        <mxCell id="1" parent="0" />
        <mxCell id="140547733256912" value="Начало RightRectangleMethod" style="ellipse;whiteSpace=wrap;rounded=0;dashed=0;inherit=default;" parent="1" vertex="1">
          <mxGeometry x="170" width="200" height="55" as="geometry" />
        </mxCell>
        <mxCell id="140547733257008" value="Ввод a, b, n" style="whiteSpace=wrap;rounded=0;dashed=0;inherit=default;shape=parallelogram;perimeter=rectanglePerimeter;fixedSize=1;spacingLeft=15;spacingRight=15;" parent="1" vertex="1">
          <mxGeometry x="170" y="95" width="200" height="40" as="geometry" />
        </mxCell>
        <mxCell id="al5AaTYBPv3rKOUCtQoy-140547733267057" style="edgeStyle=orthogonalEdgeStyle;rounded=0;orthogonalLoop=1;jettySize=auto;html=1;entryX=0.5;entryY=0;entryDx=0;entryDy=0;" edge="1" parent="1" source="140547733256192" target="al5AaTYBPv3rKOUCtQoy-140547733267056">
          <mxGeometry relative="1" as="geometry" />
        </mxCell>
        <mxCell id="140547733256192" value="h := (b - a) / n&#xa;sum := 0.0&#xa;i := 1" style="whiteSpace=wrap;rounded=0;dashed=0;inherit=default;" parent="1" vertex="1">
          <mxGeometry x="170" y="170" width="200" height="55" as="geometry" />
        </mxCell>
        <mxCell id="-Y9GHU8HEpyWhVLkh8wD-140547733267058" style="edgeStyle=orthogonalEdgeStyle;rounded=0;orthogonalLoop=1;jettySize=auto;html=1;entryX=0.5;entryY=0;entryDx=0;entryDy=0;" edge="1" parent="1" source="140547733248320" target="-Y9GHU8HEpyWhVLkh8wD-140547733267056">
          <mxGeometry relative="1" as="geometry" />
        </mxCell>
        <mxCell id="140547733248320" value="x := a + i * h&#xa;i := i + 1" style="whiteSpace=wrap;rounded=0;dashed=0;inherit=default;" parent="1" vertex="1">
          <mxGeometry x="170" y="350" width="200" height="55" as="geometry" />
        </mxCell>
        <mxCell id="140547733245968" value="Выход sum * h" style="ellipse;whiteSpace=wrap;rounded=0;dashed=0;inherit=default;" parent="1" vertex="1">
          <mxGeometry x="170" y="640" width="200" height="40" as="geometry" />
        </mxCell>
        <mxCell id="140547733266144" style="edgeStyle=orthogonalEdgeStyle;orthogonalLoop=1;rounded=0;jettySize=auto;" parent="1" source="140547733256912" target="140547733257008" edge="1">
          <mxGeometry relative="1" as="geometry">
            <Array as="points">
              <mxPoint x="270" y="75" />
              <mxPoint x="270" y="75" />
            </Array>
          </mxGeometry>
        </mxCell>
        <mxCell id="140547733264656" style="edgeStyle=orthogonalEdgeStyle;orthogonalLoop=1;rounded=0;jettySize=auto;" parent="1" target="140547733256192" edge="1">
          <mxGeometry relative="1" as="geometry">
            <Array as="points">
              <mxPoint x="270" y="150" />
              <mxPoint x="270" y="150" />
            </Array>
            <mxPoint x="270" y="130" as="sourcePoint" />
          </mxGeometry>
        </mxCell>
        <mxCell id="-Y9GHU8HEpyWhVLkh8wD-140547733267057" style="edgeStyle=orthogonalEdgeStyle;rounded=0;orthogonalLoop=1;jettySize=auto;html=1;" edge="1" parent="1" source="al5AaTYBPv3rKOUCtQoy-140547733267056" target="140547733248320">
          <mxGeometry relative="1" as="geometry" />
        </mxCell>
        <mxCell id="-Y9GHU8HEpyWhVLkh8wD-140547733267062" style="edgeStyle=orthogonalEdgeStyle;rounded=0;orthogonalLoop=1;jettySize=auto;html=1;entryX=0.5;entryY=0;entryDx=0;entryDy=0;" edge="1" parent="1" source="al5AaTYBPv3rKOUCtQoy-140547733267056" target="140547733245968">
          <mxGeometry relative="1" as="geometry">
            <mxPoint x="400" y="580" as="targetPoint" />
            <Array as="points">
              <mxPoint x="430" y="290" />
              <mxPoint x="430" y="590" />
              <mxPoint x="270" y="590" />
            </Array>
          </mxGeometry>
        </mxCell>
        <mxCell id="al5AaTYBPv3rKOUCtQoy-140547733267056" value="i &amp;lt; n" style="rhombus;whiteSpace=wrap;html=1;" vertex="1" parent="1">
          <mxGeometry x="170" y="250" width="200" height="80" as="geometry" />
        </mxCell>
        <mxCell id="-Y9GHU8HEpyWhVLkh8wD-140547733267060" style="edgeStyle=orthogonalEdgeStyle;rounded=0;orthogonalLoop=1;jettySize=auto;html=1;" edge="1" parent="1" source="-Y9GHU8HEpyWhVLkh8wD-140547733267056">
          <mxGeometry relative="1" as="geometry">
            <mxPoint x="270" y="230" as="targetPoint" />
            <Array as="points">
              <mxPoint x="270" y="540" />
              <mxPoint x="111" y="540" />
              <mxPoint x="111" y="240" />
              <mxPoint x="270" y="240" />
            </Array>
          </mxGeometry>
        </mxCell>
        <mxCell id="-Y9GHU8HEpyWhVLkh8wD-140547733267056" value="sum := sum + f(x)" style="whiteSpace=wrap;rounded=0;dashed=0;inherit=default;shape=process;backgroundOutline=1;" vertex="1" parent="1">
          <mxGeometry x="170" y="430" width="200" height="70" as="geometry" />
        </mxCell>
      </root>
    </mxGraphModel>
  </diagram>
  <diagram name="error_estimate-1" id="140547733244528">
    <mxGraphModel dx="1500" dy="899" grid="1" gridSize="10" guides="1" tooltips="1" connect="1" arrows="1" fold="1" page="1" pageScale="1" pageWidth="850" pageHeight="1100" math="0" shadow="0">
      <root>
        <mxCell id="0" />
        <mxCell id="1" parent="0" />
        <mxCell id="140547733244768" value="Начало CalcError" style="ellipse;whiteSpace=wrap;rounded=0;dashed=0;inherit=default;" parent="1" vertex="1">
          <mxGeometry width="200" height="40" as="geometry" />
        </mxCell>
        <mxCell id="140547733243952" value="Ввод a, b, n" style="whiteSpace=wrap;rounded=0;dashed=0;inherit=default;shape=parallelogram;perimeter=rectanglePerimeter;fixedSize=1;spacingLeft=15;spacingRight=15;" parent="1" vertex="1">
          <mxGeometry y="80" width="200" height="40" as="geometry" />
        </mxCell>
        <mxCell id="140547733254128" value="integral1   :=   right_rectangle_method(a, b, n)" style="whiteSpace=wrap;rounded=0;dashed=0;inherit=default;shape=process;backgroundOutline=1;" parent="1" vertex="1">
          <mxGeometry y="160" width="200" height="100" as="geometry" />
        </mxCell>
        <mxCell id="140547733246784" value="integral2 :=   right_rectangle_method(a, b, n * 2)" style="whiteSpace=wrap;rounded=0;dashed=0;inherit=default;shape=process;backgroundOutline=1;" parent="1" vertex="1">
          <mxGeometry y="300" width="200" height="115" as="geometry" />
        </mxCell>
        <mxCell id="140547733254992" value="Возврат result" style="ellipse;whiteSpace=wrap;rounded=0;dashed=0;inherit=default;" parent="1" vertex="1">
          <mxGeometry y="540" width="200" height="40" as="geometry" />
        </mxCell>
        <mxCell id="140547733267200" style="edgeStyle=orthogonalEdgeStyle;orthogonalLoop=1;rounded=0;jettySize=auto;" parent="1" source="140547733244768" target="140547733243952" edge="1">
          <mxGeometry relative="1" as="geometry">
            <Array as="points">
              <mxPoint x="100" y="60" />
              <mxPoint x="100" y="60" />
            </Array>
          </mxGeometry>
        </mxCell>
        <mxCell id="140547733267344" style="edgeStyle=orthogonalEdgeStyle;orthogonalLoop=1;rounded=0;jettySize=auto;" parent="1" source="140547733243952" edge="1">
          <mxGeometry relative="1" as="geometry">
            <Array as="points">
              <mxPoint x="100" y="140" />
              <mxPoint x="100" y="140" />
            </Array>
            <mxPoint x="100" y="160" as="targetPoint" />
          </mxGeometry>
        </mxCell>
        <mxCell id="140547733267776" style="edgeStyle=orthogonalEdgeStyle;orthogonalLoop=1;rounded=0;jettySize=auto;" parent="1" source="140547733254128" edge="1">
          <mxGeometry relative="1" as="geometry">
            <Array as="points">
              <mxPoint x="100" y="280" />
              <mxPoint x="100" y="280" />
            </Array>
            <mxPoint x="100" y="300" as="targetPoint" />
          </mxGeometry>
        </mxCell>
        <mxCell id="140547733268352" style="edgeStyle=orthogonalEdgeStyle;orthogonalLoop=1;rounded=0;jettySize=auto;" parent="1" edge="1">
          <mxGeometry relative="1" as="geometry">
            <Array as="points">
              <mxPoint x="100" y="435" />
              <mxPoint x="100" y="435" />
            </Array>
            <mxPoint x="100" y="415" as="sourcePoint" />
            <mxPoint x="100" y="450" as="targetPoint" />
          </mxGeometry>
        </mxCell>
        <mxCell id="azCnGCEacYyqIfedBaPT-140547733268352" value="result := Abs(integral1 - integral2)" style="rounded=0;whiteSpace=wrap;html=1;" vertex="1" parent="1">
          <mxGeometry y="450" width="200" height="60" as="geometry" />
        </mxCell>
        <mxCell id="azCnGCEacYyqIfedBaPT-140547733268353" style="edgeStyle=orthogonalEdgeStyle;rounded=0;orthogonalLoop=1;jettySize=auto;html=1;entryX=0.505;entryY=-0.043;entryDx=0;entryDy=0;entryPerimeter=0;" edge="1" parent="1" source="azCnGCEacYyqIfedBaPT-140547733268352" target="140547733254992">
          <mxGeometry relative="1" as="geometry" />
        </mxCell>
      </root>
    </mxGraphModel>
  </diagram>
  <diagram name="main-1" id="140547733251152">
    <mxGraphModel dx="2625" dy="1573" grid="1" gridSize="10" guides="1" tooltips="1" connect="1" arrows="1" fold="1" page="1" pageScale="1" pageWidth="850" pageHeight="1100" math="0" shadow="0">
      <root>
        <mxCell id="0" />
        <mxCell id="1" parent="0" />
        <mxCell id="140547733253120" value="Начало" style="ellipse;whiteSpace=wrap;rounded=0;dashed=0;inherit=default;" parent="1" vertex="1">
          <mxGeometry x="140" y="20" width="200" height="40" as="geometry" />
        </mxCell>
        <mxCell id="tlzbJfBs9KNg58y04bb_-140547733272482" style="edgeStyle=orthogonalEdgeStyle;rounded=0;orthogonalLoop=1;jettySize=auto;html=1;entryX=0.5;entryY=1;entryDx=0;entryDy=0;" edge="1" parent="1" source="140547733253264" target="140547733248464">
          <mxGeometry relative="1" as="geometry" />
        </mxCell>
        <mxCell id="140547733253264" value="a := 0&#xa;b := 0&#xa;n := 0&#xa;choice :=0" style="whiteSpace=wrap;rounded=0;dashed=0;inherit=default;" parent="1" vertex="1">
          <mxGeometry x="140" y="100" width="200" height="100" as="geometry" />
        </mxCell>
        <mxCell id="140547733248464" value="Цикл 1&#xa;choice = 4" style="whiteSpace=wrap;rounded=0;dashed=0;verticalLabelPosition=bottom;verticalAlign=top;shape=offPageConnector;size=0.5;direction=west;spacingTop=-50.05;" parent="1" vertex="1">
          <mxGeometry x="140" y="240" width="200" height="70" as="geometry" />
        </mxCell>
        <mxCell id="tlzbJfBs9KNg58y04bb_-140547733272480" style="edgeStyle=orthogonalEdgeStyle;rounded=0;orthogonalLoop=1;jettySize=auto;html=1;" edge="1" parent="1" source="140547733251632" target="140547733259040">
          <mxGeometry relative="1" as="geometry" />
        </mxCell>
        <mxCell id="140547733251632" value="Вывод&#xa;&quot;1. Ввод пределов интегрирования&#xa;2. Вычисление S методом правых прямоугольников&#xa;3. Оценить погрешности&#xa;4. Выход exit&#xa;&#39;Выберите действие:&quot;&#xa;" style="whiteSpace=wrap;rounded=0;dashed=0;inherit=default;shape=parallelogram;perimeter=rectanglePerimeter;fixedSize=1;spacingLeft=15;spacingRight=15;" parent="1" vertex="1">
          <mxGeometry x="140" y="330" width="200" height="150" as="geometry" />
        </mxCell>
        <mxCell id="tlzbJfBs9KNg58y04bb_-140547733272481" style="edgeStyle=orthogonalEdgeStyle;rounded=0;orthogonalLoop=1;jettySize=auto;html=1;entryX=0.5;entryY=0;entryDx=0;entryDy=0;" edge="1" parent="1" source="140547733259040" target="140547733262064">
          <mxGeometry relative="1" as="geometry" />
        </mxCell>
        <mxCell id="140547733259040" value="Ввод choice" style="whiteSpace=wrap;rounded=0;dashed=0;inherit=default;shape=parallelogram;perimeter=rectanglePerimeter;fixedSize=1;spacingLeft=15;spacingRight=15;" parent="1" vertex="1">
          <mxGeometry x="140" y="510" width="200" height="40" as="geometry" />
        </mxCell>
        <mxCell id="T17hy9aiYWxmpJPHIyj9-140547733272491" style="edgeStyle=orthogonalEdgeStyle;rounded=0;orthogonalLoop=1;jettySize=auto;html=1;" edge="1" parent="1" source="140547733262064" target="T17hy9aiYWxmpJPHIyj9-140547733272480">
          <mxGeometry relative="1" as="geometry" />
        </mxCell>
        <mxCell id="140547733262064" value="choice равно 1" style="rhombus;whiteSpace=wrap;rounded=0;dashed=0;inherit=default;" parent="1" vertex="1">
          <mxGeometry x="140" y="600" width="200" height="80" as="geometry" />
        </mxCell>
        <mxCell id="140547733260432" value="choice равно 2" style="rhombus;whiteSpace=wrap;rounded=0;dashed=0;inherit=default;" parent="1" vertex="1">
          <mxGeometry x="380" y="700" width="200" height="80" as="geometry" />
        </mxCell>
        <mxCell id="140547733261680" value="choice равно 3" style="rhombus;whiteSpace=wrap;rounded=0;dashed=0;inherit=default;" parent="1" vertex="1">
          <mxGeometry x="620" y="800" width="200" height="80" as="geometry" />
        </mxCell>
        <mxCell id="140547733263360" value="choice равно 4" style="rhombus;whiteSpace=wrap;rounded=0;dashed=0;inherit=default;" parent="1" vertex="1">
          <mxGeometry x="860" y="900" width="200" height="80" as="geometry" />
        </mxCell>
        <mxCell id="140547733265136" value="Вывод &quot;Нет такой опцыы&quot;" style="whiteSpace=wrap;rounded=0;dashed=0;inherit=default;shape=parallelogram;perimeter=rectanglePerimeter;fixedSize=1;spacingLeft=15;spacingRight=15;" parent="1" vertex="1">
          <mxGeometry x="1100" y="1020" width="200" height="55" as="geometry" />
        </mxCell>
        <mxCell id="140547733258704" value="Цикл 1" style="whiteSpace=wrap;rounded=0;dashed=0;verticalLabelPosition=bottom;verticalAlign=top;shape=offPageConnector;size=0.5;spacingTop=-52.0;" parent="1" vertex="1">
          <mxGeometry x="140" y="1170" width="200" height="52" as="geometry" />
        </mxCell>
        <mxCell id="140547733262208" value="Конец" style="ellipse;whiteSpace=wrap;rounded=0;dashed=0;inherit=default;" parent="1" vertex="1">
          <mxGeometry x="140" y="1262" width="200" height="40" as="geometry" />
        </mxCell>
        <mxCell id="140547733262592" value="Вывод&#xa;&quot;Bye bye&quot;" style="whiteSpace=wrap;rounded=0;dashed=0;inherit=default;shape=parallelogram;perimeter=rectanglePerimeter;fixedSize=1;spacingLeft=15;spacingRight=15;" parent="1" vertex="1">
          <mxGeometry x="860" y="1020" width="200" height="55" as="geometry" />
        </mxCell>
        <mxCell id="140547733262112" value="error := CalcError(a, b, n); " style="whiteSpace=wrap;rounded=0;dashed=0;inherit=default;shape=process;backgroundOutline=1;" parent="1" vertex="1">
          <mxGeometry x="620" y="920" width="200" height="100" as="geometry" />
        </mxCell>
        <mxCell id="140547733263024" value="Вывод&#xa;&quot;Оценка погрешности:&quot; error:0:2" style="whiteSpace=wrap;rounded=0;dashed=0;inherit=default;shape=parallelogram;perimeter=rectanglePerimeter;fixedSize=1;spacingLeft=15;spacingRight=15;" parent="1" vertex="1">
          <mxGeometry x="620" y="1060" width="200" height="70" as="geometry" />
        </mxCell>
        <mxCell id="140547733260768" value="result := RightRectangleMethod(a, b, n)" style="whiteSpace=wrap;rounded=0;dashed=0;inherit=default;shape=process;backgroundOutline=1;" parent="1" vertex="1">
          <mxGeometry x="380" y="820" width="200" height="100" as="geometry" />
        </mxCell>
        <mxCell id="140547733264800" value="Вывод&#xa;&quot;Площадь фигуры:&quot; result" style="whiteSpace=wrap;rounded=0;dashed=0;inherit=default;shape=parallelogram;perimeter=rectanglePerimeter;fixedSize=1;spacingLeft=15;spacingRight=15;" parent="1" vertex="1">
          <mxGeometry x="380" y="960" width="200" height="70" as="geometry" />
        </mxCell>
        <mxCell id="140547733268544" style="edgeStyle=orthogonalEdgeStyle;orthogonalLoop=1;rounded=0;jettySize=auto;" parent="1" source="140547733253120" target="140547733253264" edge="1">
          <mxGeometry relative="1" as="geometry">
            <Array as="points">
              <mxPoint x="240" y="80" />
              <mxPoint x="240" y="80" />
            </Array>
          </mxGeometry>
        </mxCell>
        <mxCell id="140547733269120" style="edgeStyle=orthogonalEdgeStyle;orthogonalLoop=1;rounded=0;jettySize=auto;" parent="1" source="140547733248464" target="140547733251632" edge="1">
          <mxGeometry relative="1" as="geometry">
            <Array as="points">
              <mxPoint x="240" y="431.5" />
              <mxPoint x="240" y="431.5" />
            </Array>
          </mxGeometry>
        </mxCell>
        <mxCell id="140547733270272" value="нет" style="edgeStyle=orthogonalEdgeStyle;orthogonalLoop=1;rounded=0;jettySize=auto;entryX=0.5;entryY=0;entryDx=0;entryDy=0;" parent="1" target="140547733260432" edge="1">
          <mxGeometry x="-0.9" y="10" relative="1" as="geometry">
            <Array as="points">
              <mxPoint x="480" y="640" />
            </Array>
            <mxPoint x="340" y="640" as="sourcePoint" />
            <mxPoint x="580" y="660" as="targetPoint" />
            <mxPoint as="offset" />
          </mxGeometry>
        </mxCell>
        <mxCell id="140547733270416" value="да" style="edgeStyle=orthogonalEdgeStyle;orthogonalLoop=1;rounded=0;jettySize=auto;" parent="1" source="140547733262064" edge="1">
          <mxGeometry x="-1" y="25" relative="1" as="geometry">
            <Array as="points">
              <mxPoint x="240" y="700" />
              <mxPoint x="240" y="700" />
            </Array>
            <mxPoint x="240" y="719.9999999999998" as="targetPoint" />
          </mxGeometry>
        </mxCell>
        <mxCell id="140547733270704" value="нет" style="edgeStyle=orthogonalEdgeStyle;orthogonalLoop=1;rounded=0;jettySize=auto;" parent="1" source="140547733260432" target="140547733261680" edge="1">
          <mxGeometry x="-0.9" y="10" relative="1" as="geometry">
            <Array as="points">
              <mxPoint x="720" y="740" />
            </Array>
            <mxPoint as="offset" />
          </mxGeometry>
        </mxCell>
        <mxCell id="140547733270848" value="да" style="edgeStyle=orthogonalEdgeStyle;orthogonalLoop=1;rounded=0;jettySize=auto;" parent="1" source="140547733260432" target="140547733260768" edge="1">
          <mxGeometry x="-1" y="25" relative="1" as="geometry">
            <Array as="points">
              <mxPoint x="480" y="800" />
              <mxPoint x="480" y="800" />
            </Array>
          </mxGeometry>
        </mxCell>
        <mxCell id="140547733270992" style="edgeStyle=orthogonalEdgeStyle;orthogonalLoop=1;rounded=0;jettySize=auto;" parent="1" source="140547733258704" target="140547733262208" edge="1">
          <mxGeometry relative="1" as="geometry">
            <Array as="points">
              <mxPoint x="240" y="1242" />
              <mxPoint x="240" y="1242" />
            </Array>
          </mxGeometry>
        </mxCell>
        <mxCell id="140547733271136" style="edgeStyle=orthogonalEdgeStyle;orthogonalLoop=1;rounded=0;jettySize=auto;" parent="1" source="140547733260768" target="140547733264800" edge="1">
          <mxGeometry relative="1" as="geometry">
            <Array as="points">
              <mxPoint x="480" y="940" />
              <mxPoint x="480" y="940" />
            </Array>
          </mxGeometry>
        </mxCell>
        <mxCell id="140547733271280" value="нет" style="edgeStyle=orthogonalEdgeStyle;orthogonalLoop=1;rounded=0;jettySize=auto;" parent="1" source="140547733261680" target="140547733263360" edge="1">
          <mxGeometry x="-0.9" y="10" relative="1" as="geometry">
            <Array as="points">
              <mxPoint x="960" y="840" />
            </Array>
            <mxPoint as="offset" />
          </mxGeometry>
        </mxCell>
        <mxCell id="140547733271424" value="да" style="edgeStyle=orthogonalEdgeStyle;orthogonalLoop=1;rounded=0;jettySize=auto;" parent="1" source="140547733261680" target="140547733262112" edge="1">
          <mxGeometry x="-1" y="25" relative="1" as="geometry">
            <Array as="points">
              <mxPoint x="720" y="900" />
              <mxPoint x="720" y="900" />
            </Array>
          </mxGeometry>
        </mxCell>
        <mxCell id="140547733271568" style="edgeStyle=orthogonalEdgeStyle;orthogonalLoop=1;rounded=0;jettySize=auto;" parent="1" source="140547733264800" target="140547733258704" edge="1">
          <mxGeometry relative="1" as="geometry">
            <Array as="points">
              <mxPoint x="480" y="1150" />
              <mxPoint x="240" y="1150" />
            </Array>
          </mxGeometry>
        </mxCell>
        <mxCell id="140547733271712" style="edgeStyle=orthogonalEdgeStyle;orthogonalLoop=1;rounded=0;jettySize=auto;" parent="1" source="140547733262112" target="140547733263024" edge="1">
          <mxGeometry relative="1" as="geometry">
            <Array as="points">
              <mxPoint x="720" y="1040" />
              <mxPoint x="720" y="1040" />
            </Array>
          </mxGeometry>
        </mxCell>
        <mxCell id="140547733271856" value="нет" style="edgeStyle=orthogonalEdgeStyle;orthogonalLoop=1;rounded=0;jettySize=auto;exitX=1;exitY=0.5;exitDx=0;exitDy=0;entryX=0.5;entryY=0;entryDx=0;entryDy=0;" parent="1" source="140547733263360" target="140547733265136" edge="1">
          <mxGeometry x="-0.9091" y="10" relative="1" as="geometry">
            <Array as="points">
              <mxPoint x="1200" y="940" />
            </Array>
            <mxPoint x="1070.0000000000002" y="930.0000000000002" as="sourcePoint" />
            <mxPoint x="1310.0000000000002" y="969.9999999999998" as="targetPoint" />
            <mxPoint as="offset" />
          </mxGeometry>
        </mxCell>
        <mxCell id="140547733272000" value="да" style="edgeStyle=orthogonalEdgeStyle;orthogonalLoop=1;rounded=0;jettySize=auto;" parent="1" source="140547733263360" target="140547733262592" edge="1">
          <mxGeometry x="-1" y="25" relative="1" as="geometry">
            <Array as="points">
              <mxPoint x="960" y="1000" />
              <mxPoint x="960" y="1000" />
            </Array>
          </mxGeometry>
        </mxCell>
        <mxCell id="140547733272144" style="edgeStyle=orthogonalEdgeStyle;orthogonalLoop=1;rounded=0;jettySize=auto;" parent="1" source="140547733263024" target="140547733258704" edge="1">
          <mxGeometry relative="1" as="geometry">
            <Array as="points">
              <mxPoint x="720" y="1150" />
              <mxPoint x="240" y="1150" />
            </Array>
          </mxGeometry>
        </mxCell>
        <mxCell id="140547733272288" style="edgeStyle=orthogonalEdgeStyle;orthogonalLoop=1;rounded=0;jettySize=auto;" parent="1" source="140547733262592" target="140547733262208" edge="1">
          <mxGeometry relative="1" as="geometry">
            <Array as="points">
              <mxPoint x="960" y="1242" />
              <mxPoint x="240" y="1242" />
            </Array>
          </mxGeometry>
        </mxCell>
        <mxCell id="140547733272480" style="edgeStyle=orthogonalEdgeStyle;orthogonalLoop=1;rounded=0;jettySize=auto;" parent="1" source="140547733265136" target="140547733258704" edge="1">
          <mxGeometry relative="1" as="geometry">
            <Array as="points">
              <mxPoint x="1200" y="1150" />
              <mxPoint x="240" y="1150" />
            </Array>
          </mxGeometry>
        </mxCell>
        <mxCell id="T17hy9aiYWxmpJPHIyj9-140547733272480" value="Вывод&#xa;&quot;Введите нижний   предел (a):&quot;" style="whiteSpace=wrap;rounded=0;dashed=0;inherit=default;shape=parallelogram;perimeter=rectanglePerimeter;fixedSize=1;spacingLeft=15;spacingRight=15;" vertex="1" parent="1">
          <mxGeometry x="140" y="700" width="200" height="55" as="geometry" />
        </mxCell>
        <mxCell id="T17hy9aiYWxmpJPHIyj9-140547733272481" style="edgeStyle=orthogonalEdgeStyle;rounded=0;orthogonalLoop=1;jettySize=auto;html=1;entryX=0.5;entryY=0;entryDx=0;entryDy=0;" edge="1" parent="1" source="T17hy9aiYWxmpJPHIyj9-140547733272482" target="T17hy9aiYWxmpJPHIyj9-140547733272484">
          <mxGeometry relative="1" as="geometry" />
        </mxCell>
        <mxCell id="T17hy9aiYWxmpJPHIyj9-140547733272482" value="Ввод a" style="whiteSpace=wrap;rounded=0;dashed=0;inherit=default;shape=parallelogram;perimeter=rectanglePerimeter;fixedSize=1;spacingLeft=15;spacingRight=15;" vertex="1" parent="1">
          <mxGeometry x="140" y="780" width="200" height="40" as="geometry" />
        </mxCell>
        <mxCell id="T17hy9aiYWxmpJPHIyj9-140547733272483" style="edgeStyle=orthogonalEdgeStyle;rounded=0;orthogonalLoop=1;jettySize=auto;html=1;entryX=0.5;entryY=0;entryDx=0;entryDy=0;" edge="1" parent="1" source="T17hy9aiYWxmpJPHIyj9-140547733272484" target="T17hy9aiYWxmpJPHIyj9-140547733272486">
          <mxGeometry relative="1" as="geometry" />
        </mxCell>
        <mxCell id="T17hy9aiYWxmpJPHIyj9-140547733272484" value="Вывод&#xa;&quot;Введите верхний   предел (b):&quot;" style="whiteSpace=wrap;rounded=0;dashed=0;inherit=default;shape=parallelogram;perimeter=rectanglePerimeter;fixedSize=1;spacingLeft=15;spacingRight=15;" vertex="1" parent="1">
          <mxGeometry x="140" y="840" width="200" height="55" as="geometry" />
        </mxCell>
        <mxCell id="T17hy9aiYWxmpJPHIyj9-140547733272485" style="edgeStyle=orthogonalEdgeStyle;rounded=0;orthogonalLoop=1;jettySize=auto;html=1;" edge="1" parent="1" source="T17hy9aiYWxmpJPHIyj9-140547733272486" target="T17hy9aiYWxmpJPHIyj9-140547733272488">
          <mxGeometry relative="1" as="geometry" />
        </mxCell>
        <mxCell id="T17hy9aiYWxmpJPHIyj9-140547733272486" value="Ввод b" style="whiteSpace=wrap;rounded=0;dashed=0;inherit=default;shape=parallelogram;perimeter=rectanglePerimeter;fixedSize=1;spacingLeft=15;spacingRight=15;" vertex="1" parent="1">
          <mxGeometry x="140" y="920" width="200" height="40" as="geometry" />
        </mxCell>
        <mxCell id="T17hy9aiYWxmpJPHIyj9-140547733272487" style="edgeStyle=orthogonalEdgeStyle;rounded=0;orthogonalLoop=1;jettySize=auto;html=1;entryX=0.5;entryY=0;entryDx=0;entryDy=0;" edge="1" parent="1" source="T17hy9aiYWxmpJPHIyj9-140547733272488" target="T17hy9aiYWxmpJPHIyj9-140547733272489">
          <mxGeometry relative="1" as="geometry" />
        </mxCell>
        <mxCell id="T17hy9aiYWxmpJPHIyj9-140547733272488" value="Вывод&#xa;&quot;Введите кол-во   разбиений (n):&quot;" style="whiteSpace=wrap;rounded=0;dashed=0;inherit=default;shape=parallelogram;perimeter=rectanglePerimeter;fixedSize=1;spacingLeft=15;spacingRight=15;" vertex="1" parent="1">
          <mxGeometry x="140" y="980" width="200" height="55" as="geometry" />
        </mxCell>
        <mxCell id="PVlqYyqgb0jCRdZyeloU-140547733272494" style="edgeStyle=orthogonalEdgeStyle;rounded=0;orthogonalLoop=1;jettySize=auto;html=1;" edge="1" parent="1" source="T17hy9aiYWxmpJPHIyj9-140547733272489">
          <mxGeometry relative="1" as="geometry">
            <mxPoint x="240" y="1150.0000000000002" as="targetPoint" />
          </mxGeometry>
        </mxCell>
        <mxCell id="T17hy9aiYWxmpJPHIyj9-140547733272489" value="Ввод n" style="whiteSpace=wrap;rounded=0;dashed=0;inherit=default;shape=parallelogram;perimeter=rectanglePerimeter;fixedSize=1;spacingLeft=15;spacingRight=15;" vertex="1" parent="1">
          <mxGeometry x="140" y="1060" width="200" height="40" as="geometry" />
        </mxCell>
        <mxCell id="T17hy9aiYWxmpJPHIyj9-140547733272490" style="edgeStyle=orthogonalEdgeStyle;orthogonalLoop=1;rounded=0;jettySize=auto;" edge="1" parent="1" source="T17hy9aiYWxmpJPHIyj9-140547733272480" target="T17hy9aiYWxmpJPHIyj9-140547733272482">
          <mxGeometry relative="1" as="geometry">
            <Array as="points">
              <mxPoint x="240" y="795" />
              <mxPoint x="240" y="795" />
            </Array>
          </mxGeometry>
        </mxCell>
        <mxCell id="PSAC6JRpAX_73ryQuU70-140547733272480" value="Начало f" style="ellipse;whiteSpace=wrap;rounded=0;dashed=0;inherit=default;" vertex="1" parent="1">
          <mxGeometry x="680" y="60" width="200" height="40" as="geometry" />
        </mxCell>
        <mxCell id="PSAC6JRpAX_73ryQuU70-140547733272481" value="Ввод x" style="whiteSpace=wrap;rounded=0;dashed=0;inherit=default;shape=parallelogram;perimeter=rectanglePerimeter;fixedSize=1;spacingLeft=15;spacingRight=15;" vertex="1" parent="1">
          <mxGeometry x="680" y="140" width="200" height="40" as="geometry" />
        </mxCell>
        <mxCell id="PVlqYyqgb0jCRdZyeloU-140547733272496" style="edgeStyle=orthogonalEdgeStyle;rounded=0;orthogonalLoop=1;jettySize=auto;html=1;entryX=0.5;entryY=0;entryDx=0;entryDy=0;" edge="1" parent="1" source="PSAC6JRpAX_73ryQuU70-140547733272482" target="PVlqYyqgb0jCRdZyeloU-140547733272495">
          <mxGeometry relative="1" as="geometry" />
        </mxCell>
        <mxCell id="PSAC6JRpAX_73ryQuU70-140547733272482" value="result := 2 * x * x * x +   2 * x * x + 2 * x + 19" style="whiteSpace=wrap;rounded=0;dashed=0;inherit=default;" vertex="1" parent="1">
          <mxGeometry x="680" y="220" width="200" height="70" as="geometry" />
        </mxCell>
        <mxCell id="PSAC6JRpAX_73ryQuU70-140547733272483" value="Конец f" style="ellipse;whiteSpace=wrap;rounded=0;dashed=0;inherit=default;" vertex="1" parent="1">
          <mxGeometry x="680" y="370" width="200" height="40" as="geometry" />
        </mxCell>
        <mxCell id="PSAC6JRpAX_73ryQuU70-140547733272484" style="edgeStyle=orthogonalEdgeStyle;orthogonalLoop=1;rounded=0;jettySize=auto;" edge="1" parent="1" source="PSAC6JRpAX_73ryQuU70-140547733272480" target="PSAC6JRpAX_73ryQuU70-140547733272481">
          <mxGeometry relative="1" as="geometry">
            <Array as="points">
              <mxPoint x="780" y="120" />
              <mxPoint x="780" y="120" />
            </Array>
          </mxGeometry>
        </mxCell>
        <mxCell id="PSAC6JRpAX_73ryQuU70-140547733272485" style="edgeStyle=orthogonalEdgeStyle;orthogonalLoop=1;rounded=0;jettySize=auto;" edge="1" parent="1" source="PSAC6JRpAX_73ryQuU70-140547733272481" target="PSAC6JRpAX_73ryQuU70-140547733272482">
          <mxGeometry relative="1" as="geometry">
            <Array as="points">
              <mxPoint x="780" y="200" />
              <mxPoint x="780" y="200" />
            </Array>
          </mxGeometry>
        </mxCell>
        <mxCell id="MltX4Mgn6ldFF0oSOU9q-140547733272480" value="Начало CalcError" style="ellipse;whiteSpace=wrap;rounded=0;dashed=0;inherit=default;" vertex="1" parent="1">
          <mxGeometry x="930" y="60" width="200" height="40" as="geometry" />
        </mxCell>
        <mxCell id="MltX4Mgn6ldFF0oSOU9q-140547733272481" value="Ввод a, b, n" style="whiteSpace=wrap;rounded=0;dashed=0;inherit=default;shape=parallelogram;perimeter=rectanglePerimeter;fixedSize=1;spacingLeft=15;spacingRight=15;" vertex="1" parent="1">
          <mxGeometry x="930" y="140" width="200" height="40" as="geometry" />
        </mxCell>
        <mxCell id="MltX4Mgn6ldFF0oSOU9q-140547733272482" value="integral1   :=   right_rectangle_method(a, b, n)" style="whiteSpace=wrap;rounded=0;dashed=0;inherit=default;shape=process;backgroundOutline=1;" vertex="1" parent="1">
          <mxGeometry x="930" y="220" width="200" height="100" as="geometry" />
        </mxCell>
        <mxCell id="MltX4Mgn6ldFF0oSOU9q-140547733272483" value="integral2 :=   right_rectangle_method(a, b, n * 2)" style="whiteSpace=wrap;rounded=0;dashed=0;inherit=default;shape=process;backgroundOutline=1;" vertex="1" parent="1">
          <mxGeometry x="930" y="360" width="200" height="115" as="geometry" />
        </mxCell>
        <mxCell id="MltX4Mgn6ldFF0oSOU9q-140547733272484" value="Конец CalcError" style="ellipse;whiteSpace=wrap;rounded=0;dashed=0;inherit=default;" vertex="1" parent="1">
          <mxGeometry x="930" y="650" width="200" height="40" as="geometry" />
        </mxCell>
        <mxCell id="MltX4Mgn6ldFF0oSOU9q-140547733272485" style="edgeStyle=orthogonalEdgeStyle;orthogonalLoop=1;rounded=0;jettySize=auto;" edge="1" parent="1" source="MltX4Mgn6ldFF0oSOU9q-140547733272480" target="MltX4Mgn6ldFF0oSOU9q-140547733272481">
          <mxGeometry relative="1" as="geometry">
            <Array as="points">
              <mxPoint x="1030" y="120" />
              <mxPoint x="1030" y="120" />
            </Array>
          </mxGeometry>
        </mxCell>
        <mxCell id="MltX4Mgn6ldFF0oSOU9q-140547733272486" style="edgeStyle=orthogonalEdgeStyle;orthogonalLoop=1;rounded=0;jettySize=auto;" edge="1" parent="1" source="MltX4Mgn6ldFF0oSOU9q-140547733272481">
          <mxGeometry relative="1" as="geometry">
            <Array as="points">
              <mxPoint x="1030" y="200" />
              <mxPoint x="1030" y="200" />
            </Array>
            <mxPoint x="1030" y="220" as="targetPoint" />
          </mxGeometry>
        </mxCell>
        <mxCell id="MltX4Mgn6ldFF0oSOU9q-140547733272487" style="edgeStyle=orthogonalEdgeStyle;orthogonalLoop=1;rounded=0;jettySize=auto;" edge="1" parent="1" source="MltX4Mgn6ldFF0oSOU9q-140547733272482">
          <mxGeometry relative="1" as="geometry">
            <Array as="points">
              <mxPoint x="1030" y="340" />
              <mxPoint x="1030" y="340" />
            </Array>
            <mxPoint x="1030" y="360" as="targetPoint" />
          </mxGeometry>
        </mxCell>
        <mxCell id="MltX4Mgn6ldFF0oSOU9q-140547733272488" style="edgeStyle=orthogonalEdgeStyle;orthogonalLoop=1;rounded=0;jettySize=auto;" edge="1" parent="1">
          <mxGeometry relative="1" as="geometry">
            <Array as="points">
              <mxPoint x="1030" y="495" />
              <mxPoint x="1030" y="495" />
            </Array>
            <mxPoint x="1030" y="475" as="sourcePoint" />
            <mxPoint x="1030" y="510" as="targetPoint" />
          </mxGeometry>
        </mxCell>
        <mxCell id="PVlqYyqgb0jCRdZyeloU-140547733272499" style="edgeStyle=orthogonalEdgeStyle;rounded=0;orthogonalLoop=1;jettySize=auto;html=1;entryX=0.5;entryY=0;entryDx=0;entryDy=0;" edge="1" parent="1" source="MltX4Mgn6ldFF0oSOU9q-140547733272489" target="PVlqYyqgb0jCRdZyeloU-140547733272498">
          <mxGeometry relative="1" as="geometry" />
        </mxCell>
        <mxCell id="MltX4Mgn6ldFF0oSOU9q-140547733272489" value="result := Abs(integral1 - integral2)" style="rounded=0;whiteSpace=wrap;html=1;" vertex="1" parent="1">
          <mxGeometry x="930" y="510" width="200" height="60" as="geometry" />
        </mxCell>
        <mxCell id="PVlqYyqgb0jCRdZyeloU-140547733272480" value="Начало RightRectangleMethod" style="ellipse;whiteSpace=wrap;rounded=0;dashed=0;inherit=default;" vertex="1" parent="1">
          <mxGeometry x="1239.0000000000002" y="60" width="200" height="55" as="geometry" />
        </mxCell>
        <mxCell id="PVlqYyqgb0jCRdZyeloU-140547733272481" value="Ввод a, b, n" style="whiteSpace=wrap;rounded=0;dashed=0;inherit=default;shape=parallelogram;perimeter=rectanglePerimeter;fixedSize=1;spacingLeft=15;spacingRight=15;" vertex="1" parent="1">
          <mxGeometry x="1239.0000000000002" y="155" width="200" height="40" as="geometry" />
        </mxCell>
        <mxCell id="PVlqYyqgb0jCRdZyeloU-140547733272482" style="edgeStyle=orthogonalEdgeStyle;rounded=0;orthogonalLoop=1;jettySize=auto;html=1;entryX=0.5;entryY=0;entryDx=0;entryDy=0;" edge="1" parent="1" source="PVlqYyqgb0jCRdZyeloU-140547733272483" target="PVlqYyqgb0jCRdZyeloU-140547733272491">
          <mxGeometry relative="1" as="geometry" />
        </mxCell>
        <mxCell id="PVlqYyqgb0jCRdZyeloU-140547733272483" value="h := (b - a) / n&#xa;sum := 0.0&#xa;i := 1" style="whiteSpace=wrap;rounded=0;dashed=0;inherit=default;" vertex="1" parent="1">
          <mxGeometry x="1239.0000000000002" y="230" width="200" height="55" as="geometry" />
        </mxCell>
        <mxCell id="PVlqYyqgb0jCRdZyeloU-140547733272484" style="edgeStyle=orthogonalEdgeStyle;rounded=0;orthogonalLoop=1;jettySize=auto;html=1;entryX=0.5;entryY=0;entryDx=0;entryDy=0;" edge="1" parent="1" source="PVlqYyqgb0jCRdZyeloU-140547733272485" target="PVlqYyqgb0jCRdZyeloU-140547733272493">
          <mxGeometry relative="1" as="geometry" />
        </mxCell>
        <mxCell id="PVlqYyqgb0jCRdZyeloU-140547733272485" value="x := a + i * h&#xa;i := i + 1" style="whiteSpace=wrap;rounded=0;dashed=0;inherit=default;" vertex="1" parent="1">
          <mxGeometry x="1239.0000000000002" y="410" width="200" height="55" as="geometry" />
        </mxCell>
        <mxCell id="PVlqYyqgb0jCRdZyeloU-140547733272487" style="edgeStyle=orthogonalEdgeStyle;orthogonalLoop=1;rounded=0;jettySize=auto;" edge="1" parent="1" source="PVlqYyqgb0jCRdZyeloU-140547733272480" target="PVlqYyqgb0jCRdZyeloU-140547733272481">
          <mxGeometry relative="1" as="geometry">
            <Array as="points">
              <mxPoint x="1339.0000000000002" y="135" />
              <mxPoint x="1339.0000000000002" y="135" />
            </Array>
          </mxGeometry>
        </mxCell>
        <mxCell id="PVlqYyqgb0jCRdZyeloU-140547733272488" style="edgeStyle=orthogonalEdgeStyle;orthogonalLoop=1;rounded=0;jettySize=auto;" edge="1" parent="1" target="PVlqYyqgb0jCRdZyeloU-140547733272483">
          <mxGeometry relative="1" as="geometry">
            <Array as="points">
              <mxPoint x="1339.0000000000002" y="210" />
              <mxPoint x="1339.0000000000002" y="210" />
            </Array>
            <mxPoint x="1339.0000000000002" y="190" as="sourcePoint" />
          </mxGeometry>
        </mxCell>
        <mxCell id="PVlqYyqgb0jCRdZyeloU-140547733272489" style="edgeStyle=orthogonalEdgeStyle;rounded=0;orthogonalLoop=1;jettySize=auto;html=1;" edge="1" parent="1" source="PVlqYyqgb0jCRdZyeloU-140547733272491" target="PVlqYyqgb0jCRdZyeloU-140547733272485">
          <mxGeometry relative="1" as="geometry" />
        </mxCell>
        <mxCell id="PVlqYyqgb0jCRdZyeloU-140547733272490" style="edgeStyle=orthogonalEdgeStyle;rounded=0;orthogonalLoop=1;jettySize=auto;html=1;entryX=0.5;entryY=0;entryDx=0;entryDy=0;" edge="1" parent="1" source="PVlqYyqgb0jCRdZyeloU-140547733272491">
          <mxGeometry relative="1" as="geometry">
            <mxPoint x="1339" y="700" as="targetPoint" />
            <Array as="points">
              <mxPoint x="1499.0000000000002" y="350" />
              <mxPoint x="1499.0000000000002" y="650" />
              <mxPoint x="1339.0000000000002" y="650" />
            </Array>
          </mxGeometry>
        </mxCell>
        <mxCell id="PVlqYyqgb0jCRdZyeloU-140547733272491" value="i &amp;lt; n" style="rhombus;whiteSpace=wrap;html=1;" vertex="1" parent="1">
          <mxGeometry x="1239.0000000000002" y="310" width="200" height="80" as="geometry" />
        </mxCell>
        <mxCell id="PVlqYyqgb0jCRdZyeloU-140547733272492" style="edgeStyle=orthogonalEdgeStyle;rounded=0;orthogonalLoop=1;jettySize=auto;html=1;" edge="1" parent="1" source="PVlqYyqgb0jCRdZyeloU-140547733272493" target="PVlqYyqgb0jCRdZyeloU-140547733272491">
          <mxGeometry relative="1" as="geometry">
            <mxPoint x="1339.0000000000002" y="290" as="targetPoint" />
            <Array as="points">
              <mxPoint x="1339" y="600" />
              <mxPoint x="1180" y="600" />
              <mxPoint x="1180" y="300" />
              <mxPoint x="1339" y="300" />
            </Array>
          </mxGeometry>
        </mxCell>
        <mxCell id="PVlqYyqgb0jCRdZyeloU-140547733272493" value="sum := sum + f(x)" style="whiteSpace=wrap;rounded=0;dashed=0;inherit=default;shape=process;backgroundOutline=1;" vertex="1" parent="1">
          <mxGeometry x="1239.0000000000002" y="490" width="200" height="70" as="geometry" />
        </mxCell>
        <mxCell id="PVlqYyqgb0jCRdZyeloU-140547733272497" style="edgeStyle=orthogonalEdgeStyle;rounded=0;orthogonalLoop=1;jettySize=auto;html=1;" edge="1" parent="1" source="PVlqYyqgb0jCRdZyeloU-140547733272495" target="PSAC6JRpAX_73ryQuU70-140547733272483">
          <mxGeometry relative="1" as="geometry" />
        </mxCell>
        <mxCell id="PVlqYyqgb0jCRdZyeloU-140547733272495" value="Возврат result" style="shape=parallelogram;perimeter=parallelogramPerimeter;whiteSpace=wrap;html=1;fixedSize=1;" vertex="1" parent="1">
          <mxGeometry x="680" y="310" width="200" height="40" as="geometry" />
        </mxCell>
        <mxCell id="PVlqYyqgb0jCRdZyeloU-140547733272500" style="edgeStyle=orthogonalEdgeStyle;rounded=0;orthogonalLoop=1;jettySize=auto;html=1;entryX=0.5;entryY=0;entryDx=0;entryDy=0;" edge="1" parent="1" source="PVlqYyqgb0jCRdZyeloU-140547733272498" target="MltX4Mgn6ldFF0oSOU9q-140547733272484">
          <mxGeometry relative="1" as="geometry" />
        </mxCell>
        <mxCell id="PVlqYyqgb0jCRdZyeloU-140547733272498" value="Возврат result" style="shape=parallelogram;perimeter=parallelogramPerimeter;whiteSpace=wrap;html=1;fixedSize=1;" vertex="1" parent="1">
          <mxGeometry x="930" y="590" width="200" height="40" as="geometry" />
        </mxCell>
        <mxCell id="PVlqYyqgb0jCRdZyeloU-140547733272501" value="Конец RightRectangleMethod" style="ellipse;whiteSpace=wrap;rounded=0;dashed=0;inherit=default;" vertex="1" parent="1">
          <mxGeometry x="1239" y="760" width="200" height="40" as="geometry" />
        </mxCell>
        <mxCell id="PVlqYyqgb0jCRdZyeloU-140547733272502" style="edgeStyle=orthogonalEdgeStyle;rounded=0;orthogonalLoop=1;jettySize=auto;html=1;entryX=0.5;entryY=0;entryDx=0;entryDy=0;" edge="1" parent="1" source="PVlqYyqgb0jCRdZyeloU-140547733272503" target="PVlqYyqgb0jCRdZyeloU-140547733272501">
          <mxGeometry relative="1" as="geometry" />
        </mxCell>
        <mxCell id="PVlqYyqgb0jCRdZyeloU-140547733272503" value="Возврат sum * h" style="shape=parallelogram;perimeter=parallelogramPerimeter;whiteSpace=wrap;html=1;fixedSize=1;" vertex="1" parent="1">
          <mxGeometry x="1239" y="700" width="200" height="40" as="geometry" />
        </mxCell>
      </root>
    </mxGraphModel>
  </diagram>
</mxfile>
